<svg version="1.1" xmlns="http://www.w3.org/2000/svg" viewBox="-63.90330313781294 -10.932269062311597 125.30675124546929 21.590347013356816" fill="none" stroke="black" stroke-width="0.6%" vector-effect="non-scaling-stroke">
    <path d="M 60.40345 -1.10455 L 60.40345 8.88264" />
    <path d="M -5.32075 -9.93227 A 765 38.70192 360 0 1 60.40345 -1.10455" />
    <path d="M -2.76351 9.65808 L 60.40345 8.88264" />
    <path d="M -2.76351 -0.32912 L 60.40345 -1.10455" />
    <path d="M -2.76351 -0.32912 L -2.76351 9.65808 A 700 35.41353 180 0 0 -62.9033 1.58043" />
    <path d="M -5.32075 -9.93227 L -62.9033 -8.40677 L -62.9033 1.58043" />
    <path d="M -62.9033 -8.40677 A 700 35.41353 360 0 1 -2.76351 -0.32912" />
    <path d="M -5.29998 -6.08329 A 22.025 1.11426 360 0 1 24.48848 -5.04054 A 22.025 1.11426 360 1 1 -19.56152 -5.04054 A 22.025 1.11426 360 0 1 -5.29998 -6.08329 Z" />
</svg>