<svg version="1.1" xmlns="http://www.w3.org/2000/svg" viewBox="-110.71680611968877 -767.8037083735202 221.43361223937745 1535.6074167470415" fill="none" stroke="black" stroke-width="0.6%" vector-effect="non-scaling-stroke">
    <path d="M 65.87755 -704.33347 A 765 38.84071 92.90654 0 1 83.6749 -761.73702" />
    <path d="M 6.0934 766.29475 A 765 38.84071 92.90654 0 1 65.87755 -704.33347" />
    <path d="M 14.72857 694.69669 A 700 35.54052 272.90654 0 0 85.01398 -689.63254" />
    <path d="M 75.8518 -703.82705 A 765 38.84071 92.90654 0 1 93.64915 -761.23061 A 765 38.84071 92.90654 1 1 16.06765 766.80117 A 765 38.84071 92.90654 0 1 75.8518 -703.82705 Z" />
    <path d="M 74.06805 -643.7881 A 700 35.54052 272.90654 0 0 19.3636 701.88479 A 700 35.54052 272.90654 1 0 90.35321 -696.31423 A 700 35.54052 272.90654 0 0 74.06805 -643.7881 Z" />
    <path d="M -93.64915 761.23061 A 765 38.84071 92.90654 0 1 -16.06765 -766.80117" />
    <path d="M -85.01398 689.63254 A 700 35.54052 272.90654 0 0 -14.72857 -694.69669" />
    <path d="M -83.6749 761.73702 L -93.64915 761.23061" />
    <path d="M -83.6749 761.73702 A 765 38.84071 92.90654 0 1 -6.0934 -766.29475 L -16.06765 -766.80117" />
    <path d="M -6.0934 -766.29475 A 765 38.84071 92.90654 0 1 -83.6749 761.73702" />
    <path d="M -80.37895 696.82064 A 700 35.54052 272.90654 1 0 -9.38934 -701.37837 A 700 35.54052 272.90654 0 0 -80.37895 696.82064 Z" />
    <path d="M 93.64915 -761.23061 L 83.6749 -761.73702" />
    <path d="M 16.06765 766.80117 L 6.0934 766.29475" />
</svg>